<svg width="80" height="80" viewBox="0 0 80 80" fill="none" xmlns="http://www.w3.org/2000/svg">
  <path fill-rule="evenodd" clip-rule="evenodd" d="M19.8333 38.5C18.8208 38.5 18 39.3208 18 40.3333L18 66.6667C18 67.6792 18.8208 68.5 19.8333 68.5H60.1667C61.1792 68.5 62 67.6792 62 66.6667L62 40.3333C62 39.3208 61.1792 38.5 60.1667 38.5L19.8333 38.5ZM43 56.5C41.3431 58.1569 38.6569 58.1569 37 56.5C35.3431 54.8431 35.3431 52.1569 37 50.5C38.6569 48.8431 41.3431 48.8431 43 50.5C44.6569 52.1569 44.6569 54.8431 43 56.5Z" fill="#C2CCDE" />
  <path d="M23.5 38.5V41.5H29.5V38.5H23.5ZM50.5 38.5V41.5H56.5V38.5H50.5ZM29.5 38.5V30H23.5V38.5H29.5ZM50.5 30V38.5H56.5V30L50.5 30ZM40 19.5C45.799 19.5 50.5 24.201 50.5 30L56.5 30C56.5 20.8873 49.1127 13.5 40 13.5V19.5ZM40 13.5C30.8873 13.5 23.5 20.8873 23.5 30H29.5C29.5 24.201 34.201 19.5 40 19.5V13.5Z" fill="#C2CCDE" />
</svg>