<svg width="80" height="80" viewBox="0 0 80 80" fill="none" xmlns="http://www.w3.org/2000/svg">
  <path fill-rule="evenodd" clip-rule="evenodd" d="M9.83333 38.5C8.82081 38.5 8 39.3208 8 40.3333L8 66.6667C8 67.6792 8.82081 68.5 9.83333 68.5H50.1667C51.1792 68.5 52 67.6792 52 66.6667L52 40.3333C52 39.3208 51.1792 38.5 50.1667 38.5L9.83333 38.5ZM33 56.5C31.3431 58.1569 28.6569 58.1569 27 56.5C25.3431 54.8431 25.3431 52.1569 27 50.5C28.6569 48.8431 31.3431 48.8431 33 50.5C34.6569 52.1569 34.6569 54.8431 33 56.5Z" fill="#C2CCDE" />
  <path d="M40.5 38.5C40.5 40.1569 41.8431 41.5 43.5 41.5C45.1569 41.5 46.5 40.1569 46.5 38.5H40.5ZM67.5 35.5C67.5 37.1569 68.8431 38.5 70.5 38.5C72.1569 38.5 73.5 37.1569 73.5 35.5H67.5ZM46.5 38.5L46.5 27H40.5L40.5 38.5H46.5ZM67.5 27V35.5H73.5V27L67.5 27ZM57 16.5C62.799 16.5 67.5 21.201 67.5 27L73.5 27C73.5 17.8873 66.1127 10.5 57 10.5V16.5ZM57 10.5C47.8873 10.5 40.5 17.8873 40.5 27H46.5C46.5 21.201 51.201 16.5 57 16.5V10.5Z" fill="#C2CCDE" />
</svg>