<svg width="80" height="80" viewBox="0 0 80 80" fill="none" xmlns="http://www.w3.org/2000/svg">
  <path fill-rule="evenodd" clip-rule="evenodd" d="M19.8333 40.9941C18.8208 40.9941 18 41.815 18 42.8275L18 69.1608C18 70.1733 18.8208 70.9941 19.8333 70.9941H60.1667C61.1792 70.9941 62 70.1733 62 69.1608L62 42.8275C62 41.815 61.1792 40.9941 60.1667 40.9941L19.8333 40.9941ZM43 58.9941C41.3431 60.651 38.6569 60.651 37 58.9941C35.3431 57.3373 35.3431 54.651 37 52.9941C38.6569 51.3373 41.3431 51.3373 43 52.9941C44.6569 54.651 44.6569 57.3373 43 58.9941Z" fill="#C2CCDE" />
  <path d="M23.1477 41.7707C23.5765 43.371 25.2215 44.3208 26.8219 43.892C28.4223 43.4631 29.3721 41.8181 28.9432 40.2177L23.1477 41.7707ZM23.3315 30.8656L20.4337 31.642L23.3315 30.8656ZM49.4115 23.8775L46.5137 24.6539V24.6539L49.4115 23.8775ZM48.7137 32.8643C49.1425 34.4647 50.7875 35.4144 52.3879 34.9856C53.9883 34.5568 54.9381 32.9118 54.5093 31.3114L48.7137 32.8643ZM32.8775 14.3315L33.6539 17.2293H33.6539L32.8775 14.3315ZM28.9432 40.2177L26.2293 30.0891L20.4337 31.642L23.1477 41.7707L28.9432 40.2177ZM46.5137 24.6539L48.7137 32.8643L54.5093 31.3114L52.3093 23.101L46.5137 24.6539ZM33.6539 17.2293C39.2553 15.7284 45.0128 19.0525 46.5137 24.6539L52.3093 23.101C49.9508 14.2988 40.9032 9.0752 32.101 11.4337L33.6539 17.2293ZM32.101 11.4337C23.2988 13.7923 18.0752 22.8398 20.4337 31.642L26.2293 30.0891C24.7284 24.4877 28.0525 18.7302 33.6539 17.2293L32.101 11.4337Z" fill="#C2CCDE" />
</svg>