<?xml version="1.0" encoding="UTF-8" standalone="no"?>
<svg
   version="1.0"
   width="373.000000pt"
   height="243.000000pt"
   viewBox="0 0 373.000000 243.000000"
   preserveAspectRatio="xMidYMid meet"
   id="svg29"
   sodipodi:docname="sa5Qtl01.svg"
   inkscape:version="1.4 (86a8ad7, 2024-10-11)"
   xmlns:inkscape="http://www.inkscape.org/namespaces/inkscape"
   xmlns:sodipodi="http://sodipodi.sourceforge.net/DTD/sodipodi-0.dtd"
   xmlns="http://www.w3.org/2000/svg"
   xmlns:svg="http://www.w3.org/2000/svg">
  <defs
     id="defs29" />
  <sodipodi:namedview
     id="namedview29"
     pagecolor="#ffffff"
     bordercolor="#000000"
     borderopacity="0.25"
     inkscape:showpageshadow="2"
     inkscape:pageopacity="0.0"
     inkscape:pagecheckerboard="0"
     inkscape:deskcolor="#d1d1d1"
     inkscape:document-units="pt"
     inkscape:zoom="1"
     inkscape:cx="463.5"
     inkscape:cy="167"
     inkscape:window-width="1103"
     inkscape:window-height="837"
     inkscape:window-x="712"
     inkscape:window-y="-8"
     inkscape:window-maximized="0"
     inkscape:current-layer="svg29" />
  <metadata
     id="metadata1">
Created by potrace 1.10, written by Peter Selinger 2001-2011
</metadata>
  <g
     transform="translate(0.000000,243.000000) scale(0.050000,-0.050000)"
     fill="#000000"
     stroke="none"
     id="g29">
    <path
       d="M3380 4621 c-388 -87 -762 -313 -995 -598 -112 -137 -91 -163 29 -36 197 208 463 374 726 452 83 25 177 55 210 68 128 49 718 28 920 -32 319 -96 578 -246 817 -473 90 -85 95 -87 67 -31 -71 141 -432 426 -687 543 -298 136 -757 182 -1087 107z"
       id="path1" />
    <path
       d="M3685 4207 c-32 -13 -36 -969 -4 -1028 23 -44 98 -52 135 -15 17 17 24 165 24 540 l0 516 -65 -2 c-36 0 -76 -6 -90 -11z"
       id="path2" />
    <path
       d="M3888 4191 c-35 -91 5 -1018 45 -1044 97 -65 107 -15 107 542 l0 507 -72 8 c-41 5 -76 -1 -80 -13z"
       id="path3" />
    <path
       d="M3505 4186 l-45 -9 0 -495 c0 -473 2 -497 41 -533 101 -91 118 -16 124 546 6 560 16 517 -120 491z"
       id="path4" />
    <path
       d="M1727 4110 c-12 -32 25 -690 45 -814 13 -73 14 -74 155 -106 78 -18 170 -45 203 -60 33 -16 113 -48 178 -72 423 -155 968 -585 1231 -970 161 -237 197 -237 56 0 -34 56 -61 113 -61 126 0 13 -10 19 -21 12 -12 -8 -14 1 -6 23 25 66 -265 555 -518 871 -366 457 -1212 1121 -1262 990z m297 -262 c30 -15 64 -45 75 -66 11 -20 51 -52 90 -70 39 -19 71 -42 71 -53 0 -10 9 -19 20 -19 43 0 489 -431 766 -740 166 -185 158 -175 224 -280 30 -48 72 -105 93 -128 47 -50 141 -215 129 -226 -4 -5 -28 21 -54 58 -284 410 -926 885 -1376 1018 -73 22 -94 39 -124 107 -46 106 -129 396 -146 514 l-14 92 96 -89 c53 -49 120 -102 150 -118z"
       id="path5" />
    <path
       id="path6"
       d="m 5765.0098,4140 c -8,0 -59.002,-23.0059 -112.002,-51.0059 -497,-265 -1075,-818.9882 -1410,-1352.9882 -208.3305,-332.4029 -339.1009,-591.0177 -203.1445,-392.7832 0.068,0.1765 0.1382,0.35 0.2051,0.5273 0.9734,2.2134 1.5019,4.6182 2.7539,6.709 1.5812,2.6398 3.4016,4.0124 5.039,4.3652 4.7811,7.065 7.2607,10.1509 12.627,18.2227 0.1797,0.2828 0.35,0.5653 0.5273,0.8496 0.2781,0.446 0.5588,0.8346 0.8496,1.2012 3.9502,5.9512 5.8671,8.409 10.1368,14.9121 242,370 776.9843,979.9863 903.9843,1030.9863 26,11 42.002,26.0098 37.002,35.0098 -6,8 13.0156,32.9902 41.0156,54.9902 28,21 74.0078,62 103.0078,90 29,29 120.9981,99.0019 202.9981,157.0019 83,58 147.9902,114.0137 144.9902,124.0137 -3,10 11.9922,17.9883 31.9922,17.9883 21,0 61,29.0137 90,64.0137 29,35 52.998,55 52.998,45 0,-11 9.0098,-5.0137 20.0098,10.9863 35,54 23.0078,-42.0059 -31.9922,-261.0059 -84,-330 -110.0117,-371.9882 -282.0117,-437.9882 -476.9902,-184.4072 -967.1986,-557.0459 -1283.7012,-949.8047 0.4962,-1.6802 0.5733,-3.4516 0.2344,-5.4785 -0.4548,-2.6636 -1.1261,-5.2729 -2.5781,-7.5879 -1.4264,-2.188 -3.0632,-4.1939 -4.9512,-6.0059 -2.0628,-2.2924 -4.2743,-4.4622 -6.3867,-6.709 -2.1592,-1.9002 -4.3915,-3.6963 -6.5039,-5.6543 -1.8014,-1.6982 -3.4904,-3.4806 -5.0684,-5.3906 -1.5014,-1.6868 -3.0971,-3.315 -4.4531,-5.127 -1.7834,-2.1314 -3.3037,-4.4664 -5.0977,-6.5918 -2.1388,-2.7616 -4.5427,-5.2629 -6.8847,-7.8515 -2.4084,-2.5098 -4.7952,-5.0503 -7.2364,-7.5293 -2.0384,-2.1427 -4.0534,-4.3131 -5.9765,-6.5625 -93.7433,-125.3503 -169.1233,-251.6988 -219.4043,-373.7109 -41,-99 -17.9981,-74.0118 112.0019,122.9882 333,506 999.0098,970.0215 1640.0098,1142.0215 72,19 132.9922,36.9903 136.9922,39.9903 42,33 88.0176,907.998 48.0176,907.998 z" />
    <path
       d="M920 3215 c0 -16 143 -342 199 -455 93 -185 207 -360 236 -360 33 0 32 31 -5 87 -50 77 -130 328 -143 450 l-12 115 138 -7 c398 -19 683 -92 1017 -259 368 -185 463 -260 1185 -934 157 -146 148 -99 -22 122 -557 726 -1334 1162 -2169 1217 -85 5 -215 14 -289 20 -74 5 -135 7 -135 4z"
       id="path7" />
    <path
       d="M6280 3200 c-401 -25 -815 -123 -1100 -261 -66 -33 -125 -59 -131 -59 -27 0 -339 -202 -480 -312 -244 -190 -729 -730 -729 -812 0 -24 210 159 469 407 435 417 743 615 1196 766 255 85 761 154 803 109 29 -30 -57 -354 -140 -527 -57 -116 -56 -111 -19 -111 51 0 191 240 344 590 99 226 100 231 52 227 -19 -2 -138 -10 -265 -17z"
       id="path8" />
    <path
       d="M3575 3106 c-70 -11 -71 -6 35 -233 129 -275 165 -273 295 12 l93 205 -74 13 c-41 7 -83 7 -94 0 -11 -6 -36 -9 -55 -6 -19 3 -35 -4 -35 -16 0 -11 9 -21 20 -21 11 0 20 -9 20 -20 0 -27 -74 -25 -91 2 -8 12 -2 30 13 40 18 11 19 18 5 18 -13 0 -36 3 -50 7 -15 4 -52 3 -82 -1z"
       id="path9" />
    <path
       d="M1863 2910 c201 -70 230 -77 207 -54 -20 20 -288 105 -322 103 -10 -1 42 -23 115 -49z"
       id="path10" />
    <path
       d="M2162 2811 c21 -20 383 -193 390 -185 5 4 -77 50 -181 101 -170 84 -234 110 -209 84z"
       id="path11" />
    <path
       d="M5155 2739 c-63 -33 -115 -64 -115 -68 0 -10 164 65 230 104 80 48 -3 22 -115 -36z"
       id="path12" />
    <path
       d="M3708 2608 c7 -17 12 -35 12 -40 0 -23 57 -4 68 24 18 46 17 48 -40 48 -39 0 -49 -8 -40 -32z"
       id="path13" />
    <path
       d="M1590 2360 c-134 -20 -383 -97 -319 -99 23 0 91 8 150 18 60 11 191 23 291 27 100 5 190 13 200 18 55 31 808 -121 825 -166 3 -10 22 -18 40 -18 19 0 53 -13 77 -30 23 -16 59 -25 79 -18 31 10 32 8 7 -10 -25 -18 -22 -21 15 -22 25 0 45 -9 45 -20 0 -11 13 -20 29 -20 34 0 207 -94 247 -133 38 -38 5 -33 -66 9 -407 241 -1239 406 -1750 346 -104 -12 -226 -26 -270 -31 -44 -6 -62 -5 -40 2 22 6 49 20 60 31 13 14 7 17 -20 9 -22 -6 -65 -17 -95 -24 -31 -8 -49 -22 -42 -35 9 -13 1 -16 -22 -7 -20 8 -46 6 -59 -4 -12 -10 -71 -32 -132 -50 -238 -68 -187 -87 82 -29 811 172 1580 69 2425 -327 163 -77 301 -136 306 -131 9 9 -115 91 -178 118 -19 8 -35 23 -35 33 0 81 -613 427 -910 514 -200 59 -698 84 -940 49z"
       id="path14" />
    <path
       d="M5165 2357 c-161 -23 -482 -139 -631 -228 -64 -38 -121 -69 -126 -69 -14 0 -270 -198 -318 -245 -22 -21 -89 -70 -149 -107 -156 -97 -113 -85 156 43 927 443 1973 556 2737 296 26 -8 23 -3 -9 22 -25 18 -92 47 -150 64 -58 17 -123 41 -145 53 -22 12 -85 22 -140 24 -55 1 -208 14 -340 28 -556 61 -1328 -94 -1795 -358 -19 -11 -35 -13 -35 -3 0 9 43 38 95 64 52 26 119 63 148 83 29 20 68 36 85 36 18 0 32 7 32 15 0 13 69 42 160 67 17 4 35 13 40 18 20 20 213 78 370 113 262 57 1003 35 1131 -34 20 -10 57 -18 83 -17 81 3 -308 117 -473 138 -189 24 -550 22 -726 -3z"
       id="path15" />
    <path
       d="M900 2025 c-240 -32 -332 -65 -419 -150 -55 -54 -83 -109 -46 -91 108 52 177 88 185 98 15 19 134 42 217 42 40 0 91 10 113 22 99 53 1296 57 1334 4 8 -11 73 -19 145 -19 72 1 131 -4 131 -12 0 -8 38 -20 85 -28 285 -48 290 -37 15 35 -184 48 -301 71 -586 115 -183 28 -913 18 -1174 -16z"
       id="path16" />
    <path
       d="M5290 2019 c-233 -35 -477 -92 -640 -150 l-80 -28 110 11 c61 6 156 24 212 39 56 16 164 34 240 40 76 6 150 15 164 20 116 38 1048 48 1060 11 4 -11 18 -15 33 -10 23 9 241 -14 399 -43 68 -13 176 -66 197 -97 9 -14 15 -12 15 8 1 24 7 22 29 -7 16 -20 40 -33 55 -28 60 21 -159 186 -274 206 -442 75 -1113 88 -1520 28z"
       id="path17" />
    <path
       d="M1010 1811 c-191 -24 -480 -71 -625 -102 -46 -10 -171 -184 -153 -212 5 -9 29 -7 54 3 40 17 339 68 684 118 783 114 1962 70 2660 -98 109 -26 119 -25 89 11 -71 85 -378 161 -1059 262 -292 43 -1350 54 -1650 18z"
       id="path18" />
    <path
       d="M5180 1827 c-690 -66 -1305 -194 -1391 -288 -41 -46 -19 -51 90 -19 726 208 2200 211 3227 7 188 -37 190 -36 121 80 -62 102 -70 105 -427 162 -391 62 -1252 93 -1620 58z"
       id="path19" />
    <path
       d="M1000 738 c-174 -78 -146 -212 55 -269 128 -37 178 -79 142 -122 -26 -32 -152 -35 -229 -6 -56 21 -96 -4 -81 -51 11 -38 171 -75 263 -61 222 33 218 263 -5 300 -113 19 -162 58 -133 105 24 38 164 49 230 19 39 -18 68 58 32 81 -60 37 -196 39 -274 4z"
       id="path20" />
    <path
       d="M2431 764 c-6 -6 -11 -131 -11 -277 l0 -267 50 0 c49 0 50 3 50 162 0 188 14 189 110 9 74 -138 98 -135 185 24 93 170 114 162 97 -35 l-13 -160 60 0 61 0 -5 269 c-7 370 -30 380 -196 86 -106 -190 -94 -191 -212 14 -87 151 -144 208 -176 175z"
       id="path21" />
    <path
       d="M3504 759 c-216 -47 -196 -238 30 -298 185 -49 182 -153 -3 -136 -56 5 -116 16 -134 24 -43 18 -75 -66 -35 -90 99 -62 318 -41 378 35 78 100 16 210 -135 235 -113 19 -162 58 -133 105 26 42 147 58 206 27 50 -26 100 40 57 74 -36 28 -155 41 -231 24z"
       id="path22" />
    <path
       d="M4055 755 c-267 -69 -283 -430 -23 -516 143 -47 360 33 277 102 -25 21 -40 21 -70 3 -71 -45 -191 -30 -238 29 -133 169 62 397 236 275 42 -30 48 -29 73 5 51 70 -118 138 -255 102z"
       id="path23" />
    <path
       d="M4480 767 c-25 -7 -31 -55 -33 -278 l-2 -269 59 0 59 0 -6 115 -7 115 135 6 135 6 0 -121 c0 -115 2 -121 49 -121 l49 0 6 263 c6 247 4 263 -34 277 -60 23 -70 8 -70 -112 l0 -110 -135 6 -135 6 0 108 c0 107 -11 125 -70 109z"
       id="path24" />
    <path
       d="M5208 742 c-278 -127 -199 -512 105 -511 324 1 414 357 127 504 -106 54 -127 55 -232 7z m214 -88 c145 -111 79 -334 -99 -334 -105 0 -163 50 -176 151 -21 154 158 273 275 183z"
       id="path25" />
    <path
       d="M5927 759 c-142 -30 -227 -132 -227 -272 0 -329 511 -354 569 -27 30 170 -162 338 -342 299z m180 -128 c116 -107 41 -311 -114 -311 -97 0 -130 16 -164 81 -99 192 122 374 278 230z"
       id="path26" />
    <path
       d="M6441 760 c-48 -11 -48 -12 -50 -276 l-1 -264 195 0 c195 0 195 0 195 50 0 49 -4 50 -139 50 l-140 0 -5 226 -6 226 -49 -12z"
       id="path27" />
    <path
       d="M1360 721 c0 -31 16 -40 85 -45 l85 -6 -2 -225 -2 -225 57 0 57 0 0 230 0 230 90 0 c77 0 90 6 90 40 0 38 -13 40 -230 40 -214 0 -230 -3 -230 -39z"
       id="path28" />
    <path
       d="M1895 745 c-4 -8 -10 -130 -13 -270 l-6 -255 212 0 212 0 0 52 c0 51 0 51 -150 45 l-150 -7 0 77 0 77 125 -7 c117 -7 125 -4 131 38 6 43 0 45 -125 45 l-131 0 0 70 0 70 150 0 c137 0 150 4 150 40 0 41 -385 65 -405 25z"
       id="path29" />
  </g>
  <path
     style="fill:#ff6600;stroke-width:0.531148"
     d="m 234.61956,114.66747 c -3.4171,-2.57561 -3.2888,-1.21719 -3.46409,-36.678411 l -0.15928,-32.224056 3.0806,-0.610884 c 1.69432,-0.335986 3.45165,-0.715053 3.90517,-0.84237 1.83956,-0.516419 2.73838,1.041035 3.32272,5.75751 0.6773,5.466735 -0.34788,54.540801 -1.24491,59.592651 -1.04252,5.87119 -2.50568,7.21745 -5.44021,5.00556 z"
     id="path30"
     transform="scale(0.75)" />
  <path
     style="fill:#ff6600;stroke-width:0.531148"
     d="m 246.72595,113.00164 c -1.26584,-1.09686 -1.42035,-1.69708 -1.87999,-7.30328 -1.1317,-13.803129 -0.35831,-60.391913 1.0255,-61.775726 0.26388,-0.263876 2.53419,-0.607946 5.04514,-0.764598 l 4.56537,-0.284823 -0.0174,31.014213 c -0.0187,33.354804 -0.26243,37.859984 -2.13011,39.372344 -1.65826,1.34278 -4.90746,1.21587 -6.60853,-0.25813 z"
     id="path31"
     transform="scale(0.75)" />
  <path
     style="fill:#ff6600;stroke-width:0.531148"
     d="m 263.03839,114.30604 c -1.03093,-0.79346 -1.31994,-1.82086 -1.97638,-7.0259 -0.42288,-3.35309 -1.02424,-9.681779 -1.33635,-14.063747 -0.76216,-10.700717 -1.24417,-43.485532 -0.68328,-46.475409 l 0.44839,-2.390164 3.17429,-0.16509 c 1.74585,-0.0908 3.95109,-0.02022 4.90051,0.156854 l 1.72623,0.321945 -0.0264,20.823473 c -0.0363,28.586612 -0.65399,44.586258 -1.83441,47.513638 -1.01982,2.5291 -2.30534,2.91084 -4.39258,1.3044 z"
     id="path32"
     transform="scale(0.75)" />
  <path
     style="fill:#ff6600;stroke-width:0.531148"
     d="m 263.54764,114.37449 c -0.38404,-0.15905 -0.92115,-0.87542 -1.19357,-1.59194 -0.80191,-2.10919 -2.07112,-14.347781 -2.62494,-25.311475 -0.57011,-11.286121 -0.69943,-39.774645 -0.1892,-41.6793 0.31116,-1.161574 0.52442,-1.208103 4.86871,-1.062295 l 4.54329,0.152487 -0.12477,25.760656 c -0.13134,27.113441 -0.68023,40.080377 -1.79542,42.414717 -0.65342,1.36774 -2.06936,1.90303 -3.4841,1.31715 z"
     id="path33"
     transform="scale(0.75)" />
  <path
     style="fill:#ff6600;stroke-width:0.531148"
     d="m 247.51862,143.8082 c -2.7567,-2.77373 -13.09408,-24.66553 -12.11124,-25.64837 0.8247,-0.8247 5.23702,-1.3508 8.5603,-1.02068 3.6115,0.35875 3.6198,0.36331 2.52296,1.38518 -2.31524,2.15697 -0.68478,4.30833 3.08033,4.06444 2.05135,-0.13289 2.45854,-0.3352 2.45854,-1.22156 0,-0.59272 -0.52916,-1.29444 -1.19708,-1.58746 -1.89571,-0.83167 -1.08756,-1.5726 2.09383,-1.91968 1.61454,-0.17614 3.20725,-0.48818 3.53935,-0.69343 0.48467,-0.29954 9.01532,0.59135 9.50582,0.99273 0.16919,0.13844 -6.53815,14.75689 -9.07592,19.7807 -2.38486,4.72109 -4.82571,7.59436 -6.45144,7.59436 -0.6654,0 -1.98186,-0.77681 -2.92545,-1.72623 z"
     id="path34"
     transform="scale(0.75)" />
  <path
     style="fill:#ff6600;stroke-width:0.132787"
     d="m 248.26902,153.17465 c -0.12271,-0.12272 -0.22312,-0.33947 -0.22312,-0.48167 0,-0.1422 -0.21277,-0.91673 -0.47283,-1.72118 -0.57668,-1.78383 -0.56459,-2.20194 0.0745,-2.576 0.41612,-0.24356 0.68766,-0.27203 2.595,-0.27203 1.81566,0 2.18334,0.0348 2.48976,0.23544 0.48486,0.31753 0.47314,0.87273 -0.0469,2.22118 -0.45055,1.16832 -1.08864,1.86035 -2.22059,2.40832 -0.81672,0.39537 -1.89506,0.48668 -2.19581,0.18594 z"
     id="path35"
     transform="scale(0.75)" />
  <path
     style="fill:#ff6600;stroke-width:0.132787"
     d="m 154.16557,63.347371 c 0,-0.485008 1.1989,-2.597071 2.44385,-4.305272 2.53939,-3.484303 6.49575,-7.986265 10.05206,-11.438307 14.49949,-14.074378 33.42498,-24.776997 53.63196,-30.329598 7.00946,-1.926104 13.56142,-2.992867 21.3123,-3.469984 3.06553,-0.188703 11.08231,-0.188701 14.34098,4e-6 16.17524,0.936684 30.82121,4.261537 42.42541,9.631202 12.9566,5.995469 31.99478,19.963015 40.8158,29.944912 2.32539,2.631418 3.49351,4.275092 4.5576,6.413 0.66108,1.328183 0.88488,1.952574 0.69985,1.952574 -0.20323,0 -1.95555,-1.52397 -4.64374,-4.038594 -3.37125,-3.153582 -5.22338,-4.81072 -7.50246,-6.71257 -12.24996,-10.222412 -25.15266,-17.576883 -40.41557,-23.036647 -2.95701,-1.057763 -6.60494,-2.215956 -8.6243,-2.73815 -11.79441,-3.049968 -40.97758,-4.558209 -54.79947,-2.832139 -2.44394,0.305196 -4.03264,0.666246 -5.88036,1.336374 -2.15897,0.783012 -6.0207,2.032493 -12.04587,3.897501 -2.62918,0.813827 -5.82603,1.867079 -7.1041,2.340562 -10.75614,3.984776 -21.66053,10.18744 -31.01168,17.640141 -4.05086,3.228464 -6.38523,5.353128 -11.08176,10.086261 -3.34445,3.370506 -4.88867,4.778372 -6.03461,5.501724 -0.76044,0.480016 -1.13589,0.531911 -1.13589,0.157006 z"
     id="path36"
     transform="scale(0.75)" />
  <path
     style="fill:#ff5555;stroke-width:0.531148"
     d="m 227.28215,165.89034 c -5.93345,-7.99376 -21.79949,-23.9423 -31.51623,-31.68011 -18.88029,-15.03507 -38.7431,-26.65256 -55.15917,-32.26185 -3.58661,-1.22553 -7.14912,-2.722226 -7.91669,-3.325999 -2.75248,-2.1651 -6.36298,-11.849781 -10.53001,-28.245333 -2.22021,-8.735625 -3.3731,-15.137704 -2.72599,-15.137704 0.17261,0 2.41105,1.918269 4.97432,4.262821 2.56326,2.344553 6.69211,5.664162 9.17523,7.376911 2.48311,1.71275 5.2881,4.078458 6.2333,5.25713 0.9452,1.178673 3.63211,3.281313 5.97092,4.672534 2.3388,1.391221 4.37632,2.920031 4.52782,3.397356 0.15149,0.477324 1.04983,1.242329 1.99629,1.700011 5.38867,2.605798 34.73596,31.307603 53.38277,52.208643 3.90935,4.38197 8.87639,10.63875 11.03785,13.90397 2.16147,3.26521 4.96265,7.20898 6.22485,8.76393 4.11846,5.0737 9.88892,14.48577 9.26414,15.11056 -0.1527,0.15269 -2.37543,-2.54859 -4.9394,-6.00287 z"
     id="path37"
     transform="scale(0.75)" />
  <path
     id="path38"
     style="fill:#000000;stroke-width:0.75"
     d="m 201.96826,122.29688 -3.58447,10.35791 v 2.38916 l 6.37353,-7.56885 -0.73974,-1.37549 c -0.0572,0.0583 -0.11322,0.11833 -0.16553,0.18164 -0.0751,0.0843 -0.15486,0.16575 -0.22266,0.25635 -0.0892,0.10657 -0.16518,0.22332 -0.25488,0.32959 -0.10694,0.13808 -0.22714,0.26315 -0.34424,0.39258 -0.12042,0.12549 -0.23975,0.25251 -0.36181,0.37646 -0.12792,0.13446 -0.25525,0.27019 -0.37207,0.41455 -0.11171,0.14181 -0.22838,0.28317 -0.36914,0.39697 -0.12642,-0.0559 -0.27087,-0.0814 -0.3794,-0.16699 -0.0101,-0.008 -0.014,-0.0239 -0.0132,-0.0439 -0.0405,-0.0553 -0.041,-0.13768 -0.0659,-0.20362 0.0119,-0.0446 0.0183,-0.0904 0.0352,-0.1333 0.014,-0.0357 0.0343,-0.0732 0.0601,-0.10986 -0.007,-0.0189 -0.0115,-0.0376 -0.0161,-0.0571 -0.0332,-0.14828 0.01,-0.30562 0.0146,-0.4541 0.025,-0.20998 0.0572,-0.42003 0.12012,-0.62256 0.0419,-0.14741 0.0838,-0.29633 0.14648,-0.43652 0.062,-0.13455 0.12202,-0.26848 0.17432,-0.40723 0.0487,-0.11067 0.0751,-0.23091 0.13769,-0.33545 0.10805,-0.18038 0.23837,-0.24075 0.33692,-0.2168 0.0821,-0.16622 0.16817,-0.33042 0.26367,-0.48925 0.10379,-0.15393 0.20932,-0.3069 0.30762,-0.46436 z" />
  <path
     id="path39"
     style="fill:#ff5555;stroke-width:0.531148"
     transform="scale(0.75)"
     d="m 380.98438,55.3125 c -0.10669,0.01259 -0.3128,0.299876 -0.7129,0.871094 -0.45476,0.649263 -1.2792,1.179687 -1.83203,1.179687 -0.55283,0 -1.67395,0.87792 -2.49218,1.951172 -1.83188,2.402837 -5.27171,4.955078 -6.67969,4.955078 -0.57663,0 -1.94382,1.014302 -3.03711,2.25586 -1.0933,1.241557 -4.44955,4.051204 -7.45899,6.242187 -11.83371,8.615361 -23.2104,18.317209 -24.38281,20.792969 -0.46555,0.983105 -1.73882,2.259893 -2.90625,2.914062 -4.75873,2.66653 -13.4408,11.116241 -26.39648,25.689451 -13.17564,14.82064 -30.56089,37.49728 -33.24414,43.09375 0.10291,-0.0328 0.20739,-0.0483 0.32812,-0.0488 0.033,-1.3e-4 0.0658,-6e-5 0.10156,0.002 0.20238,0.0169 0.40741,0.0392 0.59766,0.11523 0.15406,0.0687 0.30683,0.14869 0.42578,0.26953 3.67463,-4.40135 10.52415,-11.84943 15.1836,-16.4375 20.68249,-20.36564 42.55945,-35.08722 68.16992,-45.875 11.93133,-5.025766 14.02509,-7.084556 17.27148,-16.976559 2.59154,-7.896629 7.17774,-27.206797 7.17774,-30.220703 0,-0.524015 -0.007,-0.786025 -0.11328,-0.773438 z M 272.23047,165.875 c 0.0366,0.10155 0.0422,0.23279 -0.0215,0.39844 -0.0188,0.0487 -0.0378,0.0978 -0.0566,0.14648 -0.0829,0.21685 -0.17105,0.43166 -0.26367,0.64453 0.0352,-0.0518 0.0706,-0.10308 0.10352,-0.15625 0.072,-0.13481 0.15314,-0.26334 0.22461,-0.39843 0.0107,-0.0228 0.0207,-0.0456 0.0312,-0.0684 0.104,-0.22346 0.25452,-0.32238 0.38672,-0.32813 0.0635,-0.003 0.12369,0.0157 0.17187,0.0527 0.0127,-0.0155 0.034,-0.0391 0.0469,-0.0547 2.9e-4,-0.0107 3e-5,-0.0211 -0.002,-0.0312 0.001,0.009 -0.002,0.0127 -0.0254,-0.0137 -0.0592,-0.0623 -0.14594,-0.0977 -0.22461,-0.13086 -0.11999,-0.0396 -0.24586,-0.0502 -0.37109,-0.0606 z" />
  <path
     style="fill:#ff5555;stroke-width:0.187789"
     d="m 268.81997,170.35872 c 0,-0.93533 0.49829,-2.59644 0.90235,-3.00809 0.17505,-0.17835 1.02818,-1.40036 1.89583,-2.7156 1.68785,-2.55852 2.25783,-3.09352 0.94944,-0.89118 -0.43625,0.73431 -0.76076,1.35887 -0.72114,1.38791 0.0396,0.029 0.41773,0.16209 0.84024,0.29566 0.68798,0.21751 0.75836,0.29469 0.67393,0.7391 -0.0528,0.27816 -0.83178,1.29404 -1.77252,2.3117 -0.92304,0.99851 -1.80151,1.99144 -1.95216,2.20652 -0.44781,0.63934 -0.81597,0.49224 -0.81597,-0.32602 z m 3.98672,-4.40018 c -0.15793,-0.34053 -0.58702,-0.0914 -0.77594,0.45055 -0.288,0.82618 -0.27174,0.83797 0.31755,0.23032 0.28804,-0.29702 0.49432,-0.60341 0.45839,-0.68087 z"
     id="path47"
     transform="scale(0.75)" />
  <path
     style="fill:#ff5555;stroke-width:0.187789"
     d="m 269.016,170.0899 c 0.005,-0.43896 0.12424,-1.12346 0.26602,-1.52111 0.34029,-0.95445 2.43286,-3.99683 2.50459,-3.64142 0.0308,0.15237 0.3899,0.40822 0.7981,0.56857 0.8391,0.32961 0.86892,0.40891 0.41233,1.09641 -0.48488,0.73009 -3.67574,4.29565 -3.84423,4.29565 -0.0798,0 -0.14134,-0.35915 -0.13681,-0.7981 z m 3.77466,-4.31626 c -0.19536,-0.19217 -0.31087,-0.15281 -0.60382,0.2057 -0.19923,0.24383 -0.36225,0.62248 -0.36225,0.84144 0,0.36297 0.0533,0.34482 0.60382,-0.2057 0.49061,-0.49061 0.55852,-0.64836 0.36225,-0.84144 z"
     id="path48"
     transform="scale(0.75)" />
  <path
     style="fill:#ff5555;stroke-width:0.187789"
     d=""
     id="path49"
     transform="scale(0.75)" />
  <path
     style="fill:#ff5555;stroke-width:0.0117368"
     d="m 271.94542,166.99431 c 0.0367,-0.0523 0.25189,-0.43284 0.31953,-0.56508 0.10435,-0.20405 0.23222,-0.30637 0.38283,-0.30637 0.0403,0 0.0768,0.006 0.0811,0.0127 0.009,0.0154 -0.0508,0.10534 -0.17634,0.26296 -0.1026,0.12886 -0.59152,0.62808 -0.61512,0.62808 -0.01,0 -0.007,-0.0106 0.008,-0.0323 z"
     id="path50"
     transform="scale(0.75)" />
  <path
     style="fill:#ff5555;stroke-width:0.0117368"
     d=""
     id="path51"
     transform="scale(0.75)" />
  <path
     style="fill:#ff5555;stroke-width:0.0117368"
     d=""
     id="path52"
     transform="scale(0.75)" />
  <path
     style="fill:#ff5555;stroke-width:0.0117368"
     d="m 271.86667,167.0454 c -0.0239,-0.0288 -10e-4,-0.125 0.10082,-0.4296 0.0909,-0.27086 0.18337,-0.47407 0.25112,-0.55163 l 0.0359,-0.0411 -0.008,0.0703 c -0.009,0.0844 -0.0589,0.22541 -0.20806,0.59282 -0.16375,0.40328 -0.15335,0.38157 -0.17194,0.35918 z"
     id="path53"
     transform="scale(0.75)" />
  <path
     style="fill:#ff5555;stroke-width:0.0117368"
     d="m 269.05471,171.05737 c -0.23975,-0.12443 -0.29321,-0.67118 -0.14568,-1.48976 0.11704,-0.64936 0.31764,-1.30221 0.54605,-1.77703 0.0951,-0.19763 0.17818,-0.32964 0.28118,-0.44665 0.23146,-0.26292 0.81722,-1.10093 1.81339,-2.59428 0.75783,-1.13608 1.11745,-1.65336 1.42382,-2.04805 0.13107,-0.16885 0.2719,-0.32279 0.2953,-0.32279 0.0628,0 -0.17334,0.4523 -0.74755,1.43189 -0.24513,0.41819 -0.40309,0.70239 -0.53298,0.95898 -0.14105,0.27862 -0.1395,0.27389 -0.10239,0.31391 l 0.0296,0.0319 0.07,-0.13305 c 0.48091,-0.91375 1.11374,-1.96136 1.99643,-3.30492 l 0.17156,-0.26115 h 1.37509 c 1.30076,0 1.37422,0.001 1.35898,0.0203 -0.009,0.0111 -0.18013,0.20524 -0.38061,0.43133 -1.04175,1.17484 -2.11958,2.4192 -2.96679,3.42519 l -0.24452,0.29034 -0.0548,-0.0457 c -0.25864,-0.21559 -0.63417,-0.33212 -1.06228,-0.32964 l -0.1427,8.3e-4 0.0514,0.0228 c 0.0283,0.0125 0.23159,0.0816 0.45186,0.15346 0.63173,0.2061 0.74643,0.26299 0.81265,0.40306 0.055,0.11629 0.0296,0.35033 -0.0567,0.52228 -0.13687,0.27286 -0.57852,0.8653 -1.0893,1.46124 -0.24448,0.28524 -0.3851,0.44247 -0.80166,0.89632 -0.81014,0.88267 -1.50852,1.67188 -1.70839,1.93058 -0.18061,0.23377 -0.25864,0.32186 -0.33743,0.38097 -0.12222,0.0917 -0.22557,0.11812 -0.30359,0.0776 z m 3.06023,-4.17196 c 0.29432,-0.28019 0.66978,-0.72768 0.63757,-0.75989 -0.004,-0.004 -0.0439,-0.01 -0.088,-0.0124 -0.17038,-0.01 -0.30606,0.0977 -0.42818,0.3386 -0.0838,0.16538 -0.2659,0.48394 -0.27272,0.47713 -0.003,-0.003 0.0563,-0.15949 0.13133,-0.34818 0.13479,-0.33897 0.17434,-0.46907 0.16748,-0.55086 l -0.004,-0.042 -0.0568,0.0761 c -0.0313,0.0419 -0.08,0.12372 -0.10826,0.18192 -0.0615,0.1265 -0.2201,0.59529 -0.24103,0.71238 -0.0137,0.0769 -0.0132,0.0842 0.007,0.0989 0.0331,0.0242 0.0892,-0.0135 0.25544,-0.17175 z m 0.6966,-0.87405 c 0.0117,-0.0466 -0.004,-0.0843 -0.057,-0.13974 -0.0851,-0.0885 -0.18476,-0.0972 -0.31667,-0.0276 -0.0745,0.0393 -0.0846,0.0558 -0.0342,0.0558 0.0646,0 0.21759,0.0474 0.29999,0.0929 0.0458,0.0253 0.0872,0.0465 0.0919,0.047 0.005,5.1e-4 0.0119,-0.0123 0.0159,-0.0284 z"
     id="path54"
     transform="scale(0.75)" />
  <path
     style="fill:#ff5555;stroke-width:0.0117368"
     d="m 272.76341,166.00894 c -0.0485,-0.0373 -0.17041,-0.0851 -0.26818,-0.10524 l -0.10138,-0.0209 0.0439,-0.0265 c 0.0665,-0.0401 0.15415,-0.0566 0.20771,-0.0389 0.0781,0.0258 0.15917,0.11488 0.15917,0.17501 0,0.0322 -0.0136,0.0377 -0.0412,0.0165 z"
     id="path55"
     transform="scale(0.75)" />
  <path
     style="fill:#ff5555;stroke-width:0.0117368"
     d="m 272.72796,165.98093 c -0.0325,-0.0184 -0.0721,-0.035 -0.088,-0.0368 -0.0159,-0.002 -0.0318,-0.007 -0.0352,-0.0115 -0.008,-0.0103 -0.13682,-0.0444 -0.16934,-0.0448 -0.0223,-2.5e-4 -0.0219,-0.002 0.005,-0.0228 0.0412,-0.0317 0.12093,-0.0516 0.17661,-0.0441 0.0803,0.0108 0.18117,0.10706 0.17341,0.16548 l -0.004,0.028 z"
     id="path56"
     transform="scale(0.75)" />
  <path
     style="fill:#ff5555;stroke-width:0.0117368"
     d="m 269.05471,171.05737 c -0.27203,-0.14119 -0.30228,-0.81268 -0.0815,-1.80889 0.12032,-0.54288 0.29057,-1.06007 0.47641,-1.44726 0.10195,-0.21238 0.16829,-0.31939 0.27266,-0.43974 0.24766,-0.2856 0.73975,-0.98885 1.80296,-2.57662 0.85732,-1.28031 1.13206,-1.67583 1.43938,-2.07218 0.13597,-0.17537 0.28022,-0.33387 0.30385,-0.33387 0.0613,0 -0.16745,0.44089 -0.71233,1.37321 -0.37666,0.64447 -0.69047,1.22892 -0.69047,1.28593 0,0.0117 0.0114,0.0333 0.0253,0.0482 l 0.0253,0.0269 0.12547,-0.23746 c 0.43763,-0.82819 1.09888,-1.91933 1.91675,-3.16285 l 0.19492,-0.29636 h 1.37509 c 1.30793,0 1.37431,0.001 1.35899,0.0205 -0.009,0.0113 -0.0982,0.11297 -0.19849,0.22594 -1.15345,1.29894 -2.2835,2.60284 -3.2372,3.73521 l -0.15566,0.18482 -0.0703,-0.0569 c -0.13548,-0.10962 -0.34381,-0.21161 -0.52902,-0.25898 -0.0476,-0.0122 -0.15156,-0.0306 -0.23105,-0.0409 -0.15811,-0.0205 -0.41789,-0.0255 -0.40697,-0.008 0.004,0.006 0.20338,0.0755 0.44375,0.1545 0.60092,0.19748 0.72429,0.25104 0.81062,0.3519 0.0494,0.0577 0.0666,0.11439 0.0666,0.21955 0,0.20381 -0.0507,0.33747 -0.23328,0.61545 -0.33898,0.51599 -0.86392,1.15194 -1.73086,2.0969 -0.91146,0.99349 -1.63187,1.81221 -1.80343,2.04953 -0.20754,0.28711 -0.42142,0.42189 -0.55744,0.35129 z m 2.88861,-4.02145 c 0.13574,-0.10376 0.47337,-0.44787 0.631,-0.64309 0.10031,-0.12424 0.18903,-0.25648 0.17888,-0.26662 -0.005,-0.005 -0.0455,-0.0106 -0.0906,-0.0132 -0.0734,-0.004 -0.0899,-7.6e-4 -0.15725,0.0324 -0.10409,0.0512 -0.18492,0.14382 -0.26993,0.30916 -0.0919,0.17867 -0.26547,0.48069 -0.27235,0.47381 -0.003,-0.003 0.0422,-0.12449 0.10065,-0.26983 0.14568,-0.36243 0.18795,-0.48833 0.19705,-0.58682 0.007,-0.0769 0.006,-0.0825 -0.0115,-0.068 -0.0318,0.0262 -0.12663,0.1771 -0.16901,0.26882 -0.0497,0.10757 -0.20816,0.58252 -0.22694,0.68017 -0.008,0.0401 -0.0109,0.081 -0.007,0.091 0.01,0.0261 0.0578,0.0222 0.0971,-0.008 z m 0.86879,-1.02684 c 0.0114,-0.0455 -0.0368,-0.12975 -0.0992,-0.17327 -0.0727,-0.0507 -0.15633,-0.0496 -0.26399,0.003 -0.0843,0.0415 -0.0986,0.0607 -0.0453,0.0607 0.0637,0 0.21434,0.0464 0.29858,0.092 0.0466,0.0252 0.0886,0.0465 0.0933,0.0473 0.005,8.1e-4 0.0122,-0.0128 0.0165,-0.0301 z"
     id="path57"
     transform="scale(0.75)" />
  <path
     style="fill:#ff5555;stroke-width:0.0117368"
     d="m 274.02862,160.4242 c -0.31556,0.0388 -0.59788,0.23738 -0.75588,0.51122 -0.10895,0.16569 -0.21818,0.3312 -0.32629,0.49743 -0.34668,0.11534 -0.57582,0.42002 -0.79505,0.69414 -0.62413,0.82672 -1.18284,1.70005 -1.76261,2.55783 -0.43423,0.64047 -0.85726,1.27864 -1.32322,1.89685 -0.18907,0.22392 -0.36605,0.46049 -0.48879,0.72825 -0.33509,0.69483 -0.54572,1.44535 -0.67384,2.20444 -0.0811,0.53923 -0.13389,1.10654 0.0366,1.63443 0.14118,0.45016 0.52296,0.8345 0.99752,0.91163 0.42906,0.0787 0.86594,-0.10963 1.16969,-0.40826 0.24308,-0.23102 0.42439,-0.51619 0.65049,-0.76273 0.47152,-0.54501 0.9611,-1.08141 1.4407,-1.60553 0.63232,-0.69572 1.26556,-1.39761 1.78825,-2.18153 0.22275,-0.32692 0.39268,-0.70535 0.39293,-1.10752 0.008,-0.0653 -0.0247,-0.14273 0.0378,-0.18771 1.05881,-1.258 2.14212,-2.48561 3.22877,-3.71794 0.27043,-0.30949 0.32192,-0.7879 0.11481,-1.14429 -0.17723,-0.32975 -0.54885,-0.5252 -0.91877,-0.52253 -0.89992,-0.0118 -1.80011,-0.004 -2.70007,-0.005 -0.0377,0.002 -0.0753,0.005 -0.11299,0.007 z m -1.1661,4.63019 c 0.009,0.10966 -0.038,0.28266 -0.0657,0.34592 0.0474,-0.10406 0.10032,-0.2055 0.15269,-0.30711 0.0824,0.0262 0.0915,0.0934 0.0839,0.17003 0.005,0.0877 0.0151,0.17637 -0.0383,0.25246 -0.0531,0.10406 -0.0874,0.22105 -0.15208,0.31719 -0.11259,0.11978 -0.2303,0.24091 -0.38841,0.29833 -0.0649,0.0328 -0.17236,0.0397 -0.0521,0.0851 0.0231,0.0249 0.024,0.0138 0.0765,0.0319 0.15079,0.048 0.2506,0.18557 0.39873,0.24114 0.0703,0.0376 0.17165,0.0561 0.23187,0.0794 -0.0215,0.0216 -0.13046,0.12854 -0.0793,0.0565 0.0192,-0.0294 -0.0339,0.056 -0.0672,0.0659 -0.0492,0.0328 -0.10253,0.0595 -0.15845,0.0788 0.0607,0.0535 -0.0527,0.098 -0.10307,0.12012 -0.10347,0.0561 -0.21723,0.0784 -0.3325,0.0956 -0.0339,-0.0831 -0.0483,-0.18422 -0.0941,-0.25636 -0.26794,-0.10583 -0.4428,-0.38046 -0.45818,-0.66379 0.0849,-0.006 0.17085,-1.8e-4 0.25403,0.0184 -0.0531,-0.16054 -0.10619,-0.32109 -0.15929,-0.48164 -0.062,0.10937 -0.006,-0.0154 0.0191,-0.0562 0.10975,-0.19738 0.28989,-0.35019 0.49948,-0.43283 0.10709,-0.0446 0.22816,-0.0464 0.34096,-0.0735 0.0305,0.005 0.061,0.01 0.0915,0.0148 z m -0.44542,1.17715 c -2.3e-4,-8e-5 -0.001,-2.4e-4 0,0 z m -5.5e-4,-1.2e-4 c -0.0249,-0.006 -0.006,-0.001 0,0 z m -0.29241,-0.13782 c 0.007,0.002 -0.008,-0.002 0,0 z m 0.11668,0.0386 c 0.003,10e-4 -0.004,-0.002 0,0 z m 0.0718,0.0324 c 0.003,0.002 -0.003,-0.002 0,0 z m -0.0195,0.0225 c -0.006,0.002 0.009,-0.002 0,0 z m -0.0553,0.0111 c -0.009,0.002 0.0107,-0.002 0,0 z m -0.0386,0.006 c -0.009,0.001 0.0139,-0.002 0,0 z m -0.0166,0.002 c -0.0143,0.001 0.0124,-0.001 0,0 z m -0.0186,0.002 c -0.0199,0.001 0.0117,-0.001 0.009,-4.7e-4 l 4.6e-4,-3e-5 z m 0.004,3.5e-4 c 9.4e-4,0 0.003,-7e-5 0,0 z m 1.1e-4,0 c 0.009,1.8e-4 0.0245,-4e-5 0,0 z m 0.0211,2e-4 c 0.0223,3e-4 -0.0201,-3.6e-4 0,0 z m 0.0174,3.9e-4 c 0.022,5.3e-4 -0.0161,-4.9e-4 0,0 z m 0.0208,6.7e-4 c 0.0198,7.1e-4 -0.0207,-8.4e-4 0,0 z m 0.0196,8.7e-4 c 0.0198,9.1e-4 -0.0222,-0.001 0,0 z m 0.0185,0.001 c 0.0211,0.001 -0.0218,-0.001 0,0 z m 0.017,0.001 c 0.0248,0.002 -0.023,-0.002 0,0 z m 0.015,0.001 c 0.0607,0.006 -0.0316,-0.003 0,0 z m 0.0261,0.003 c 0.0259,0.003 -0.0255,-0.003 0,0 z m 0.0158,0.002 c 0.0236,0.003 -0.0229,-0.003 0,0 z m 0.0162,0.002 c 0.0246,0.004 -0.0267,-0.004 0,0 z m 0.0138,0.002 c 0.0258,0.004 -0.0219,-0.004 0,0 z m 0.0153,0.003 c 0.0222,0.004 -0.028,-0.005 0,0 z m 0.0126,0.002 c 0.0237,0.005 -0.0227,-0.005 0,0 z m 0.0486,0.0177 c 0.003,0.002 -0.003,-0.002 0,0 z m 0.0711,0.0564 c 0.003,0.002 -0.003,-0.003 0,0 z m 0.0589,0.0558 c 0.003,0.003 -0.002,-0.003 0,0 z m 0.0728,0.0841 c 0.005,0.007 -0.004,-0.006 0,0 z m 0.0786,0.11946 c 0.004,0.007 -0.004,-0.008 0,0 z m 0.0474,0.0978 c 0.004,0.008 -0.003,-0.009 0,0 z m -0.46876,0.0837 c -0.003,-0.001 -0.0139,-0.005 0,0 z m 0.50368,0.0152 c 0.003,0.009 -0.003,-0.0105 0,0 z m -0.45648,0.002 c -0.003,-0.001 -0.0141,-0.004 0,0 z m 0.43974,0.014 c -0.027,0.009 0.0251,-0.007 0,0 z m -0.39183,0 c -0.003,-0.001 -0.0144,-0.004 0,0 z m 0.37022,0.006 c -0.0267,0.007 0.0262,-0.007 0,0 z m -0.0203,0.005 c -0.0277,0.007 0.0249,-0.005 0,0 z m -0.29908,5.9e-4 c -0.003,-9.3e-4 -0.0148,-0.003 0,0 z m 0.27417,0.005 c -0.0271,0.005 0.0252,-0.004 0,0 z m -0.23474,0.002 c -0.003,-7.6e-4 -0.0156,-0.002 0,0 z m 0.20707,0.002 c -0.0249,0.004 0.0271,-0.004 0,0 z m -0.16938,0.003 c -0.003,-6.6e-4 -0.0165,-0.002 0,0 z m 0.14457,2.5e-4 c -0.0112,10e-4 0.0147,-0.001 0,0 z m -0.0151,10e-4 c -0.0136,0.001 0.0118,-8.4e-4 0,0 z m -0.0988,0.001 c -0.004,-4.7e-4 -0.0174,-0.001 0,0 z m 0.0775,4.2e-4 c -0.0126,7.3e-4 0.0124,-5.7e-4 0,0 z m -0.0566,6.8e-4 c -0.004,-3.8e-4 -0.0189,-6e-4 0,0 z m 0.0345,1.4e-4 c -0.0114,3.5e-4 0.013,-2.4e-4 0,0 z m -0.0196,2.3e-4 c 0.004,-7e-5 -0.0217,-2.9e-4 0,0 z m 8.7e-4,0 c 0.0189,1.6e-4 0.005,-1.6e-4 0,0 z"
     id="path58"
     transform="scale(0.75)" />
  <path
     style="fill:#ff5555;stroke-width:0.00390625"
     d="m 272.16978,164.21349 c -0.19503,0.0148 -0.38295,0.0901 -0.53846,0.208 -0.19311,0.13409 -0.34222,0.33279 -0.40595,0.56 -0.0825,0.28312 -0.0305,0.6013 0.13846,0.84311 0.12533,0.18419 0.31529,0.31949 0.52583,0.38957 0.24529,0.0864 0.49444,0.16138 0.73991,0.24711 0.28584,0.11096 0.62186,0.0787 0.88158,-0.0842 0.22467,-0.13658 0.38039,-0.3659 0.4617,-0.61272 0.0682,-0.20411 0.0823,-0.42876 0.0205,-0.63631 -0.0776,-0.27026 -0.27502,-0.50233 -0.52904,-0.62279 -0.13189,-0.066 -0.26595,-0.12918 -0.4083,-0.1694 -0.25271,-0.0762 -0.51643,-0.10704 -0.77893,-0.12482 -0.0358,-0.001 -0.0715,2.4e-4 -0.10728,0.002 z"
     id="path59"
     transform="scale(0.75)" />
  <path
     style="fill:#c8ab37;stroke-width:0.5"
     d="m 380.57812,55.106445 c -3.58929,2.028431 -6.34474,5.225779 -9.70019,7.647461 -6.03206,3.235854 -10.63699,8.522677 -16.32415,12.303459 -7.73179,6.047912 -15.83319,11.902144 -22.0714,19.547919 -12.91748,9.733316 -23.47628,22.167206 -34.06637,34.297056 -8.33113,9.87845 -16.38308,20.20808 -23.875,30.62012 -3.45485,1.83695 -5.59904,5.67397 -7.20898,9.13672 -1.06643,1.93448 1.14422,5.46712 3.21191,3.37402 3.11991,-2.90353 5.24251,-6.58375 7.65625,-10.03125 2.11771,-4.13068 6.18479,-7.04624 9.22233,-10.53752 20.12198,-20.97219 44.79231,-37.25577 71.60141,-48.47943 6.09141,-2.53328 12.26713,-6.459132 14.38818,-13.086563 3.71322,-10.971587 6.33283,-22.326157 8.53418,-33.688476 0.0585,-0.71412 -0.69853,-1.290611 -1.36817,-1.103516 z"
     id="path60"
     transform="scale(0.75)" />
  <path
     style="fill:#5599ff;stroke-width:0.5"
     d="m 119.95117,55.060547 c -2.46428,0.822857 -0.74529,4.250459 -0.65367,6.058578 2.83077,11.862144 5.44022,23.981592 10.73082,35.036148 2.61472,5.070197 9.09861,5.466857 13.71582,7.738277 19.65913,8.0949 38.09551,19.65892 54.45846,33.30103 11.02642,10.11962 21.75152,20.68996 31.26517,32.21655 1.62941,1.36417 2.51336,-1.23015 1.33887,-2.27441 -5.07002,-8.42808 -11.22999,-16.14826 -16.99082,-24.10585 -16.20761,-20.11954 -34.71947,-38.26607 -53.63125,-55.817003 -7.75883,-6.936911 -16.78753,-12.280143 -24.3252,-19.482422 -5.35518,-3.927526 -10.36244,-8.414717 -15.4375,-12.611328 -0.15144,-0.04898 -0.31198,-0.06865 -0.4707,-0.05957 z"
     id="path61"
     transform="scale(0.75)" />
  <path
     style="fill:#ff7f2a;stroke-width:0.75"
     d="m 67.875,121.875 27,-3 26.25,5.25 31.125,10.125 9.75,6.75 10.125,7.875 8.25,3.75 -30.75,-29.25 -27,-19.875 L 83.25,90 54.75,87.75 61.5,111 Z"
     id="path62" />
  <path
     style="fill:#666666;stroke-width:0.75"
     d="m 193.5,153.375 11.625,-5.625 20.25,-13.875 15,-7.125 18.75,-4.875 17.25,-1.5 15.375,0.75 16.875,0.75 12,-34.125 -33.75,4.125 -34.5,13.125 -26.25,18 L 201,144.75 Z"
     id="path63" />
</svg>
