<?xml version="1.0" standalone="no"?>
<!DOCTYPE svg PUBLIC "-//W3C//DTD SVG 20010904//EN"
 "http://www.w3.org/TR/2001/REC-SVG-20010904/DTD/svg10.dtd">
<svg version="1.0" xmlns="http://www.w3.org/2000/svg"
 width="373.000000pt" height="243.000000pt" viewBox="0 0 373.000000 243.000000"
 preserveAspectRatio="xMidYMid meet">
<metadata>
Created by potrace 1.10, written by Peter Selinger 2001-2011
</metadata>
<g transform="translate(0.000000,243.000000) scale(0.050000,-0.050000)"
fill="#000000" stroke="none">
<path d="M3380 4621 c-388 -87 -762 -313 -995 -598 -112 -137 -91 -163 29 -36
197 208 463 374 726 452 83 25 177 55 210 68 128 49 718 28 920 -32 319 -96
578 -246 817 -473 90 -85 95 -87 67 -31 -71 141 -432 426 -687 543 -298 136
-757 182 -1087 107z"/>
<path d="M3685 4207 c-32 -13 -36 -969 -4 -1028 23 -44 98 -52 135 -15 17 17
24 165 24 540 l0 516 -65 -2 c-36 0 -76 -6 -90 -11z"/>
<path d="M3888 4191 c-35 -91 5 -1018 45 -1044 97 -65 107 -15 107 542 l0 507
-72 8 c-41 5 -76 -1 -80 -13z"/>
<path d="M3505 4186 l-45 -9 0 -495 c0 -473 2 -497 41 -533 101 -91 118 -16
124 546 6 560 16 517 -120 491z"/>
<path d="M1727 4110 c-12 -32 25 -690 45 -814 13 -73 14 -74 155 -106 78 -18
170 -45 203 -60 33 -16 113 -48 178 -72 423 -155 968 -585 1231 -970 161 -237
197 -237 56 0 -34 56 -61 113 -61 126 0 13 -10 19 -21 12 -12 -8 -14 1 -6 23
25 66 -265 555 -518 871 -366 457 -1212 1121 -1262 990z m297 -262 c30 -15 64
-45 75 -66 11 -20 51 -52 90 -70 39 -19 71 -42 71 -53 0 -10 9 -19 20 -19 43
0 489 -431 766 -740 166 -185 158 -175 224 -280 30 -48 72 -105 93 -128 47
-50 141 -215 129 -226 -4 -5 -28 21 -54 58 -284 410 -926 885 -1376 1018 -73
22 -94 39 -124 107 -46 106 -129 396 -146 514 l-14 92 96 -89 c53 -49 120
-102 150 -118z"/>
<path d="M5653 4089 c-497 -265 -1075 -819 -1410 -1353 -225 -359 -366 -643
-171 -346 242 370 777 980 904 1031 26 11 42 26 37 35 -6 8 13 33 41 55 28 21
74 62 103 90 29 29 121 99 203 157 83 58 148 114 145 124 -3 10 12 18 32 18
21 0 61 29 90 64 29 35 53 55 53 45 0 -11 9 -5 20 11 35 54 23 -42 -32 -261
-84 -330 -110 -372 -282 -438 -657 -254 -1340 -865 -1558 -1394 -41 -99 -18
-74 112 123 333 506 999 970 1640 1142 72 19 133 37 137 40 42 33 88 908 48
908 -8 0 -59 -23 -112 -51z"/>
<path d="M920 3215 c0 -16 143 -342 199 -455 93 -185 207 -360 236 -360 33 0
32 31 -5 87 -50 77 -130 328 -143 450 l-12 115 138 -7 c398 -19 683 -92 1017
-259 368 -185 463 -260 1185 -934 157 -146 148 -99 -22 122 -557 726 -1334
1162 -2169 1217 -85 5 -215 14 -289 20 -74 5 -135 7 -135 4z"/>
<path d="M6280 3200 c-401 -25 -815 -123 -1100 -261 -66 -33 -125 -59 -131
-59 -27 0 -339 -202 -480 -312 -244 -190 -729 -730 -729 -812 0 -24 210 159
469 407 435 417 743 615 1196 766 255 85 761 154 803 109 29 -30 -57 -354
-140 -527 -57 -116 -56 -111 -19 -111 51 0 191 240 344 590 99 226 100 231 52
227 -19 -2 -138 -10 -265 -17z"/>
<path d="M3575 3106 c-70 -11 -71 -6 35 -233 129 -275 165 -273 295 12 l93
205 -74 13 c-41 7 -83 7 -94 0 -11 -6 -36 -9 -55 -6 -19 3 -35 -4 -35 -16 0
-11 9 -21 20 -21 11 0 20 -9 20 -20 0 -27 -74 -25 -91 2 -8 12 -2 30 13 40 18
11 19 18 5 18 -13 0 -36 3 -50 7 -15 4 -52 3 -82 -1z"/>
<path d="M1863 2910 c201 -70 230 -77 207 -54 -20 20 -288 105 -322 103 -10
-1 42 -23 115 -49z"/>
<path d="M2162 2811 c21 -20 383 -193 390 -185 5 4 -77 50 -181 101 -170 84
-234 110 -209 84z"/>
<path d="M5155 2739 c-63 -33 -115 -64 -115 -68 0 -10 164 65 230 104 80 48
-3 22 -115 -36z"/>
<path d="M3708 2608 c7 -17 12 -35 12 -40 0 -23 57 -4 68 24 18 46 17 48 -40
48 -39 0 -49 -8 -40 -32z"/>
<path d="M1590 2360 c-134 -20 -383 -97 -319 -99 23 0 91 8 150 18 60 11 191
23 291 27 100 5 190 13 200 18 55 31 808 -121 825 -166 3 -10 22 -18 40 -18
19 0 53 -13 77 -30 23 -16 59 -25 79 -18 31 10 32 8 7 -10 -25 -18 -22 -21 15
-22 25 0 45 -9 45 -20 0 -11 13 -20 29 -20 34 0 207 -94 247 -133 38 -38 5
-33 -66 9 -407 241 -1239 406 -1750 346 -104 -12 -226 -26 -270 -31 -44 -6
-62 -5 -40 2 22 6 49 20 60 31 13 14 7 17 -20 9 -22 -6 -65 -17 -95 -24 -31
-8 -49 -22 -42 -35 9 -13 1 -16 -22 -7 -20 8 -46 6 -59 -4 -12 -10 -71 -32
-132 -50 -238 -68 -187 -87 82 -29 811 172 1580 69 2425 -327 163 -77 301
-136 306 -131 9 9 -115 91 -178 118 -19 8 -35 23 -35 33 0 81 -613 427 -910
514 -200 59 -698 84 -940 49z"/>
<path d="M5165 2357 c-161 -23 -482 -139 -631 -228 -64 -38 -121 -69 -126 -69
-14 0 -270 -198 -318 -245 -22 -21 -89 -70 -149 -107 -156 -97 -113 -85 156
43 927 443 1973 556 2737 296 26 -8 23 -3 -9 22 -25 18 -92 47 -150 64 -58 17
-123 41 -145 53 -22 12 -85 22 -140 24 -55 1 -208 14 -340 28 -556 61 -1328
-94 -1795 -358 -19 -11 -35 -13 -35 -3 0 9 43 38 95 64 52 26 119 63 148 83
29 20 68 36 85 36 18 0 32 7 32 15 0 13 69 42 160 67 17 4 35 13 40 18 20 20
213 78 370 113 262 57 1003 35 1131 -34 20 -10 57 -18 83 -17 81 3 -308 117
-473 138 -189 24 -550 22 -726 -3z"/>
<path d="M900 2025 c-240 -32 -332 -65 -419 -150 -55 -54 -83 -109 -46 -91
108 52 177 88 185 98 15 19 134 42 217 42 40 0 91 10 113 22 99 53 1296 57
1334 4 8 -11 73 -19 145 -19 72 1 131 -4 131 -12 0 -8 38 -20 85 -28 285 -48
290 -37 15 35 -184 48 -301 71 -586 115 -183 28 -913 18 -1174 -16z"/>
<path d="M5290 2019 c-233 -35 -477 -92 -640 -150 l-80 -28 110 11 c61 6 156
24 212 39 56 16 164 34 240 40 76 6 150 15 164 20 116 38 1048 48 1060 11 4
-11 18 -15 33 -10 23 9 241 -14 399 -43 68 -13 176 -66 197 -97 9 -14 15 -12
15 8 1 24 7 22 29 -7 16 -20 40 -33 55 -28 60 21 -159 186 -274 206 -442 75
-1113 88 -1520 28z"/>
<path d="M1010 1811 c-191 -24 -480 -71 -625 -102 -46 -10 -171 -184 -153
-212 5 -9 29 -7 54 3 40 17 339 68 684 118 783 114 1962 70 2660 -98 109 -26
119 -25 89 11 -71 85 -378 161 -1059 262 -292 43 -1350 54 -1650 18z"/>
<path d="M5180 1827 c-690 -66 -1305 -194 -1391 -288 -41 -46 -19 -51 90 -19
726 208 2200 211 3227 7 188 -37 190 -36 121 80 -62 102 -70 105 -427 162
-391 62 -1252 93 -1620 58z"/>
<path d="M1000 738 c-174 -78 -146 -212 55 -269 128 -37 178 -79 142 -122 -26
-32 -152 -35 -229 -6 -56 21 -96 -4 -81 -51 11 -38 171 -75 263 -61 222 33
218 263 -5 300 -113 19 -162 58 -133 105 24 38 164 49 230 19 39 -18 68 58 32
81 -60 37 -196 39 -274 4z"/>
<path d="M2431 764 c-6 -6 -11 -131 -11 -277 l0 -267 50 0 c49 0 50 3 50 162
0 188 14 189 110 9 74 -138 98 -135 185 24 93 170 114 162 97 -35 l-13 -160
60 0 61 0 -5 269 c-7 370 -30 380 -196 86 -106 -190 -94 -191 -212 14 -87 151
-144 208 -176 175z"/>
<path d="M3504 759 c-216 -47 -196 -238 30 -298 185 -49 182 -153 -3 -136 -56
5 -116 16 -134 24 -43 18 -75 -66 -35 -90 99 -62 318 -41 378 35 78 100 16
210 -135 235 -113 19 -162 58 -133 105 26 42 147 58 206 27 50 -26 100 40 57
74 -36 28 -155 41 -231 24z"/>
<path d="M4055 755 c-267 -69 -283 -430 -23 -516 143 -47 360 33 277 102 -25
21 -40 21 -70 3 -71 -45 -191 -30 -238 29 -133 169 62 397 236 275 42 -30 48
-29 73 5 51 70 -118 138 -255 102z"/>
<path d="M4480 767 c-25 -7 -31 -55 -33 -278 l-2 -269 59 0 59 0 -6 115 -7
115 135 6 135 6 0 -121 c0 -115 2 -121 49 -121 l49 0 6 263 c6 247 4 263 -34
277 -60 23 -70 8 -70 -112 l0 -110 -135 6 -135 6 0 108 c0 107 -11 125 -70
109z"/>
<path d="M5208 742 c-278 -127 -199 -512 105 -511 324 1 414 357 127 504 -106
54 -127 55 -232 7z m214 -88 c145 -111 79 -334 -99 -334 -105 0 -163 50 -176
151 -21 154 158 273 275 183z"/>
<path d="M5927 759 c-142 -30 -227 -132 -227 -272 0 -329 511 -354 569 -27 30
170 -162 338 -342 299z m180 -128 c116 -107 41 -311 -114 -311 -97 0 -130 16
-164 81 -99 192 122 374 278 230z"/>
<path d="M6441 760 c-48 -11 -48 -12 -50 -276 l-1 -264 195 0 c195 0 195 0
195 50 0 49 -4 50 -139 50 l-140 0 -5 226 -6 226 -49 -12z"/>
<path d="M1360 721 c0 -31 16 -40 85 -45 l85 -6 -2 -225 -2 -225 57 0 57 0 0
230 0 230 90 0 c77 0 90 6 90 40 0 38 -13 40 -230 40 -214 0 -230 -3 -230 -39z"/>
<path d="M1895 745 c-4 -8 -10 -130 -13 -270 l-6 -255 212 0 212 0 0 52 c0 51
0 51 -150 45 l-150 -7 0 77 0 77 125 -7 c117 -7 125 -4 131 38 6 43 0 45 -125
45 l-131 0 0 70 0 70 150 0 c137 0 150 4 150 40 0 41 -385 65 -405 25z"/>
</g>
</svg>
